solid OpenSCAD_Model
  facet normal -1 0 0
    outer loop
      vertex 0 7.02 8
      vertex 0 10.02 0
      vertex 0 7.02 0
    endloop
  endfacet
  facet normal -1 0 0
    outer loop
      vertex 0 10.02 0
      vertex 0 7.02 8
      vertex 0 10.02 20.6
    endloop
  endfacet
  facet normal -1 0 0
    outer loop
      vertex 0 3 10.1
      vertex 0 7.02 8
      vertex 0 3 8
    endloop
  endfacet
  facet normal -1 0 0
    outer loop
      vertex 0 7.02 8
      vertex 0 3 10.1
      vertex 0 10.02 20.6
    endloop
  endfacet
  facet normal -1 -0 0
    outer loop
      vertex 0 10.02 20.6
      vertex 0 3 10.1
      vertex 0 3 20.6
    endloop
  endfacet
  facet normal -1 0 0
    outer loop
      vertex 0 0 0
      vertex 0 3 8
      vertex 0 3 0
    endloop
  endfacet
  facet normal -1 0 0
    outer loop
      vertex 0 0 10.1
      vertex 0 3 8
      vertex 0 0 0
    endloop
  endfacet
  facet normal -1 0 0
    outer loop
      vertex 0 3 8
      vertex 0 0 10.1
      vertex 0 3 10.1
    endloop
  endfacet
  facet normal 0 0 -1
    outer loop
      vertex 0 3 8
      vertex 35 7.02 8
      vertex 35 3 8
    endloop
  endfacet
  facet normal -0 0 -1
    outer loop
      vertex 35 7.02 8
      vertex 0 3 8
      vertex 0 7.02 8
    endloop
  endfacet
  facet normal 1 0 0
    outer loop
      vertex 35 10.02 20.6
      vertex 35 7.02 8
      vertex 35 10.02 0
    endloop
  endfacet
  facet normal 1 0 0
    outer loop
      vertex 35 3 10.1
      vertex 35 10.02 20.6
      vertex 35 3 20.6
    endloop
  endfacet
  facet normal 1 0 0
    outer loop
      vertex 35 10.02 20.6
      vertex 35 3 10.1
      vertex 35 7.02 8
    endloop
  endfacet
  facet normal 1 0 0
    outer loop
      vertex 35 3 10.1
      vertex 35 3 8
      vertex 35 7.02 8
    endloop
  endfacet
  facet normal 1 -0 0
    outer loop
      vertex 35 0 10.1
      vertex 35 3 8
      vertex 35 3 10.1
    endloop
  endfacet
  facet normal 1 0 0
    outer loop
      vertex 35 0 0
      vertex 35 3 8
      vertex 35 0 10.1
    endloop
  endfacet
  facet normal 1 0 0
    outer loop
      vertex 35 3 8
      vertex 35 0 0
      vertex 35 3 0
    endloop
  endfacet
  facet normal 1 0 0
    outer loop
      vertex 35 10.02 0
      vertex 35 7.02 8
      vertex 35 7.02 0
    endloop
  endfacet
  facet normal 0 0 -1
    outer loop
      vertex 0 7.02 0
      vertex 35 10.02 0
      vertex 35 7.02 0
    endloop
  endfacet
  facet normal -0 0 -1
    outer loop
      vertex 35 10.02 0
      vertex 0 7.02 0
      vertex 0 10.02 0
    endloop
  endfacet
  facet normal 0 0 -1
    outer loop
      vertex 0 0 0
      vertex 35 3 0
      vertex 35 0 0
    endloop
  endfacet
  facet normal -0 0 -1
    outer loop
      vertex 35 3 0
      vertex 0 0 0
      vertex 0 3 0
    endloop
  endfacet
  facet normal 0 -1 0
    outer loop
      vertex 0 0 0
      vertex 35 0 10.1
      vertex 0 0 10.1
    endloop
  endfacet
  facet normal 0 -1 -0
    outer loop
      vertex 35 0 10.1
      vertex 0 0 0
      vertex 35 0 0
    endloop
  endfacet
  facet normal 0 1 -0
    outer loop
      vertex 35 10.02 0
      vertex 0 10.02 20.6
      vertex 35 10.02 20.6
    endloop
  endfacet
  facet normal 0 1 0
    outer loop
      vertex 0 10.02 20.6
      vertex 35 10.02 0
      vertex 0 10.02 0
    endloop
  endfacet
  facet normal 0 -1 0
    outer loop
      vertex 0 7.02 0
      vertex 35 7.02 8
      vertex 0 7.02 8
    endloop
  endfacet
  facet normal 0 -1 -0
    outer loop
      vertex 35 7.02 8
      vertex 0 7.02 0
      vertex 35 7.02 0
    endloop
  endfacet
  facet normal 0 1 -0
    outer loop
      vertex 35 3 0
      vertex 0 3 8
      vertex 35 3 8
    endloop
  endfacet
  facet normal 0 1 0
    outer loop
      vertex 0 3 8
      vertex 35 3 0
      vertex 0 3 0
    endloop
  endfacet
  facet normal -0 0 1
    outer loop
      vertex 0 3 10.1
      vertex 35 0 10.1
      vertex 35 3 10.1
    endloop
  endfacet
  facet normal 0 0 1
    outer loop
      vertex 35 0 10.1
      vertex 0 3 10.1
      vertex 0 0 10.1
    endloop
  endfacet
  facet normal -0 0 1
    outer loop
      vertex 0 10.02 20.6
      vertex 35 3 20.6
      vertex 35 10.02 20.6
    endloop
  endfacet
  facet normal 0 0 1
    outer loop
      vertex 35 3 20.6
      vertex 0 10.02 20.6
      vertex 0 3 20.6
    endloop
  endfacet
  facet normal 0 -1 0
    outer loop
      vertex 0 3 10.1
      vertex 35 3 20.6
      vertex 0 3 20.6
    endloop
  endfacet
  facet normal 0 -1 -0
    outer loop
      vertex 35 3 20.6
      vertex 0 3 10.1
      vertex 35 3 10.1
    endloop
  endfacet
endsolid OpenSCAD_Model
